<?xml version="1.0" standalone="no"?>
<!DOCTYPE svg PUBLIC "-//W3C//DTD SVG 20010904//EN"
 "http://www.w3.org/TR/2001/REC-SVG-20010904/DTD/svg10.dtd">
<svg version="1.0" xmlns="http://www.w3.org/2000/svg"
 width="1200.000000pt" height="1200.000000pt" viewBox="0 0 1200.000000 1200.000000"
 preserveAspectRatio="xMidYMid meet">

<g transform="translate(0.000000,1200.000000) scale(0.100000,-0.100000)"
fill="#000000" stroke="none">
<path d="M5660 11984 c-806 -55 -1543 -254 -2265 -609 -460 -227 -851 -482
-1255 -818 -173 -144 -489 -453 -643 -627 -791 -896 -1286 -1972 -1441 -3132
-41 -308 -51 -463 -50 -823 1 -366 14 -569 59 -882 174 -1207 713 -2306 1549
-3161 l160 -163 385 384 c215 214 392 383 399 380 6 -3 10 -8 7 -13 -7 -12
200 -418 285 -557 304 -498 678 -903 1130 -1223 500 -354 1089 -598 1705 -707
149 -26 177 -28 410 -27 1472 6 2983 645 4099 1734 1425 1390 2054 3339 1716
5315 -200 1169 -749 2235 -1578 3064 l-104 104 -390 -389 c-215 -214 -388
-384 -384 -378 3 7 -1 14 -9 18 -8 3 -15 14 -15 25 0 29 -152 325 -258 501
-488 815 -1216 1443 -2062 1778 -397 158 -634 202 -1110 207 -157 1 -310 1
-340 -1z m3848 -2655 c65 -157 185 -524 231 -704 141 -556 211 -1143 211
-1771 0 -646 -92 -1164 -301 -1699 -282 -721 -764 -1338 -1359 -1741 -671
-455 -1419 -609 -2070 -429 -373 104 -741 334 -1086 679 -235 234 -395 451
-536 723 l-71 135 -986 -986 c-542 -542 -989 -986 -993 -986 -4 0 -5 7 -2 15
4 8 1 15 -7 15 -7 0 -9 3 -6 7 4 3 3 11 -3 18 -18 22 -141 378 -190 551 -151
533 -227 1054 -251 1720 -29 849 88 1551 368 2193 435 1001 1249 1709 2188
1904 211 44 290 52 525 52 292 0 517 -32 742 -106 181 -59 446 -212 676 -391
134 -104 372 -341 482 -478 109 -136 243 -343 317 -486 32 -63 60 -114 63
-114 3 0 453 448 1000 995 547 547 999 994 1005 992 5 -2 29 -50 53 -108z"/>
</g>
</svg>
